<svg xmlns="http://www.w3.org/2000/svg" id="contact" viewBox="0 0 1000 1000">
  <path d="M755,939A691.86,691.86,0,0,1,264.2,735.73,691.59,691.59,0,0,1,61,245,184.08,184.08,0,0,1,245,61a175.49,175.49,0,0,1,30.55,2.6,180,180,0,0,1,44,13.22,14,14,0,0,1,8.15,10.61l44.53,282.05a14,14,0,0,1-4.5,12.63A183.32,183.32,0,0,1,291.89,423C342,553,447,658,577,708.11a183.32,183.32,0,0,1,40.86-75.84,14,14,0,0,1,12.62-4.5L912.66,672.2a14,14,0,0,1,10.62,8.15,180.33,180.33,0,0,1,13.12,44.11A174.26,174.26,0,0,1,939,755,184.08,184.08,0,0,1,755,939ZM245,89c-86,.09-156,70.08-156,156,0,177.88,69.21,345.12,195,470.91S577.05,911,755,911c85.94,0,155.93-70,156-156a146.41,146.41,0,0,0-2.19-25.7l0-.22a152.21,152.21,0,0,0-8.23-30.41l-266.65-42a154.26,154.26,0,0,0-32.72,72.41,14,14,0,0,1-18.41,11A525.15,525.15,0,0,1,260,417.23a14,14,0,0,1,11-18.41,154.34,154.34,0,0,0,72.41-32.71L301.26,99.53A150.41,150.41,0,0,0,271,91.22l-.22,0A146.44,146.44,0,0,0,245,89Z"></path>
  <path d="M538.82 415.64a14 14 0 0 1-14-14 45.44 45.44 0 0 0-45.39-45.39 14 14 0 0 1 0-28 73.47 73.47 0 0 1 73.39 73.39A14 14 0 0 1 538.82 415.64ZM627.91 415.64a14 14 0 0 1-14-14c0-74.15-60.33-134.47-134.48-134.47a14 14 0 1 1 0-28c89.59 0 162.48 72.88 162.48 162.47A14 14 0 0 1 627.91 415.64Z"></path>
  <path d="M717,415.64a14,14,0,0,1-14-14c0-123.27-100.29-223.56-223.56-223.56a14,14,0,0,1,0-28A251.56,251.56,0,0,1,731,401.64,14,14,0,0,1,717,415.64Z"></path>
  <path d="M806.07 415.64a14 14 0 0 1-14-14C792.07 229.25 651.82 89 479.43 89a14 14 0 0 1 0-28A340.35 340.35 0 0 1 820.07 401.64 14 14 0 0 1 806.07 415.64ZM301.21 419.49a14 14 0 0 1-13.79-11.65L231.22 77.35a14 14 0 1 1 27.6-4.7L315 403.14a14 14 0 0 1-11.45 16.15A13.68 13.68 0 0 1 301.21 419.49ZM925 769a13.71 13.71 0 0 1-2.37-.2l-330.49-56.2a14 14 0 0 1 4.7-27.6l330.49 56.2A14 14 0 0 1 925 769Z"></path>
</svg>
