<svg xmlns="http://www.w3.org/2000/svg" width="512" height="512" id="introduce">
  <path d="M164.699 340.572C168.799 348.331 175.99 354.418 182.707 359.858C201.479 344.825 224.304 353.319 229.466 376.224C231.354 376.536 233.807 375.954 235.774 375.896C250.863 375.446 263.483 387.697 263.796 402.762L268.796 403.039C278.77 404.226 289.745 412.941 291.987 422.977C292.388 424.77 292.683 432.79 293.214 432.92C303.812 435.511 307.3 440.166 313.875 448.362C321.156 457.438 359.814 471.295 373.438 472.918L377.496 473.141C385.566 473.101 388.295 469.666 388.222 461.916C382.951 458.49 376.286 456.603 370.553 453.987C364.503 451.227 335.057 437.189 333.619 430.37C332.685 425.941 337.158 421.174 341.679 422.297C343.866 422.84 346.176 424.551 348.076 425.733L357.673 431.597C371.3 439.764 388.084 447.96 403.988 450.21C411.659 451.296 424.303 450.171 422.101 439.087C421.435 435.738 408.098 431.278 404.99 429.734C395.145 424.842 385.519 419.215 376.25 413.311L356.012 398.973C353.433 397.079 350.478 395.482 348.257 393.162C342.192 386.825 350.004 377.922 356.464 381.569C358.748 382.859 360.771 385.076 362.857 386.695L395.437 408.761C405.155 414.469 438.553 433.564 447.87 418.926C454.676 408.231 438.12 402.74 431.875 399.935C414.591 392.172 398.541 380.136 383.792 368.453C379.549 365.092 369.136 358.794 373.906 352.16C379.222 344.767 386.649 353.006 391.094 356.545L404.913 367.091C420.374 378.575 439.286 392.448 459.607 389.273C463.495 388.666 467.027 387.036 469.296 383.705C476.668 372.885 459.341 369.569 452.91 366.634C435.672 358.768 419.481 345.72 405.676 332.872C388.244 316.647 350.644 275.953 323.502 282.688C317.032 284.293 316.099 287.535 313.232 293.086L307.9 302.553C294.652 324.122 266.686 341.2 242.9 325.527C233.166 319.113 237.234 310.658 239.268 300.997C247.095 263.814 263.343 221.925 301.094 206.337C319.267 198.833 340.025 198.058 359.404 196.519L405.163 191.578C397.638 169.668 410.074 160.886 426.132 151.196C437.602 144.275 449.222 136.79 462.897 135.758C479.56 134.519 492.414 150.54 502.585 161.359C523.907 184.042 543.037 208.004 558.686 234.962C568.698 252.208 581.32 277.042 568.621 296.214C565.58 300.804 561.508 304.912 557.635 308.806L545.27 321.212C533.553 333.077 518.501 351.348 500.515 339.259C495.197 348.315 487.549 357.698 479.622 364.468C480.237 365.833 481.347 367.018 482.158 368.281C492.047 383.697 476.548 400.94 459.494 402.59C464.343 410.789 464.414 421.254 457.858 428.607C451.812 435.386 444.33 436.088 435.81 436.636C438.14 450.136 428.332 462.08 414.958 464.496C410.758 465.255 405.679 464.804 401.401 464.772C400.74 473.403 398.159 479.601 389.924 483.953C376.032 491.295 358.077 483.149 344.39 478.956C344.525 490.374 334.904 499.838 323.649 500.497C312.623 501.144 302.976 494.319 295.137 487.301C277.301 498.862 252.987 493.718 246.206 472.538L242.928 472.439C231.124 471.64 221.994 464.902 216.954 454.339C214.799 449.824 216.283 450.242 211.362 449.723C194 447.893 182.057 435.831 183.417 418.077C170.375 414.293 160.288 399.883 163.561 386.239C165.152 379.606 168.65 375.016 173.031 369.936C162.067 362.951 153.917 349.916 148.538 338.459L145.583 341.147C126.469 357.384 106.912 338.704 93.0312 325.229C87.0218 319.396 80.8815 313.455 75.6784 306.874C56.3286 282.399 75.8474 252.544 89.766 230.718C104.648 207.381 121.569 184.607 139.942 163.906C163.448 137.422 173.245 131.774 204.046 147.444C224.204 157.7 242.301 164.468 238.387 190.583C249.101 191.473 259.065 194.12 269.062 198.058C285.992 204.726 277.581 214.492 272.18 213.646C266.816 212.805 261.194 209.868 256.008 208.149C248.044 205.509 239.86 203.908 231.566 202.723L167.229 306.406C161.956 315.545 159.954 330.862 164.699 340.572ZM462.108 149.496C454.432 150.422 448.049 154.394 441.488 158.214L428.01 166.299C410.652 177.388 414.717 182.144 426.647 198.732L484.812 287.987L507.197 325.253C509.563 329.045 510.261 330.351 514.988 329.596C522.918 326.431 528.541 318.804 534.37 312.875L551.181 295.432C553.883 292.424 557.081 289.165 558.648 285.381C569.854 258.314 509.99 189.809 493.292 171.537L482.393 159.977C477.217 154.852 470.021 148.603 462.108 149.496ZM176.711 152.611C164.116 154.203 155.754 166.77 148.129 175.705L127.318 201.142C114.854 217.217 103.193 233.882 93.1088 251.562C78.8177 276.618 74.048 285.613 95.9681 308.426C103.529 316.295 118.777 334.029 130.697 333.775C136.866 331.868 146.627 316.601 149.919 310.384C160.323 290.74 172.444 272.004 184.388 253.265L218.342 197.956C228.534 180.005 229.371 177.956 211.278 167.322L191.26 156.463C186.681 154.251 181.903 152.298 176.711 152.611ZM410.753 204.812L384.684 208.23L334.888 212.32C283.812 218.169 264.269 250.336 253.604 298.959C252.483 304.067 251.048 309.798 251.22 315.053C274.629 324.529 290.633 305.729 300.729 287.066C303.224 282.452 305.45 277.871 309.531 274.416C320.527 265.107 338.568 268.05 350.719 273.001L362.345 278.686C380.716 289.402 393.618 302.425 408.851 316.957C420.987 328.535 449.922 354.816 467.627 356.779C474.981 352.819 480.12 344.748 484.921 338.105L492.321 327.728C487.853 318.718 482.086 310.179 476.895 301.562L420.735 214.35C418.583 211.064 416.521 207.474 413.726 204.692L410.753 204.812ZM201.918 366.036C193.608 367.002 186.902 374.44 181.938 380.727C170.54 395.164 182.203 407.151 190.601 403.651C195.489 400.496 215.227 385.199 215.973 381.924C217.547 375.013 211.129 367.386 204.531 366.25L201.918 366.036ZM233.719 389.446C228.72 390.571 225.14 393.981 221.209 397.059L208.207 407.369C204.825 410.068 200.344 412.72 197.66 416.066C194.457 427.915 201.137 435.597 213.37 434.863C220.725 433.142 226.286 426.589 231.853 421.892L242.84 412.767C245.026 410.888 247.528 408.895 249.049 406.406C254.503 397.486 243.857 388.992 233.719 389.446ZM263.331 416.636C255.505 418.871 249.59 425.297 243.438 430.3L233.58 438.319C222.51 447.846 234.581 459.992 244.992 458.592C251.908 456.553 266.359 444.713 272.136 439.567C279.804 432.737 283.21 423.666 271.403 418.059C268.833 416.838 266.158 416.438 263.331 416.636ZM286.579 446.008C283.555 446.99 262.489 463.872 259.922 466.742C261.66 475.31 267.379 479.289 275.832 479.675C284.872 478.441 294.124 472.49 299.658 465.214C307.181 455.324 296.884 446.247 286.579 446.008ZM315.589 466.395C313.398 471.109 310.58 474.666 306.892 478.33C311.757 482.739 316.934 487.339 323.851 487.234C329.153 485.682 330.799 480.49 332.106 475.678C327.238 471.793 321.181 469.113 315.589 466.395Z" transform="scale(.8)" fill="#ffffff" class="color000000 svgShape"></path>
  <path d="M463.276 193.046C448.76 196.502 443.842 176.974 457.285 172.259 472.02 170.727 476.396 188.337 463.276 193.046zM186.583 197.784C171.756 197.85 169.196 179.472 184.135 176.945 198.29 176.089 201.649 195.157 186.583 197.784zM529.401 299.783C514.328 299.59 512.56 280.041 528.155 278.242 541.898 278.899 544.272 297.601 529.401 299.783z" transform="scale(.8)" fill="#ffffff" class="color000000 svgShape"></path>
</svg>
